<svg xmlns="http://www.w3.org/2000/svg" width="760" height="460" viewBox="0 0 760 460">
  <title>Trackball Speed Scale</title>
  <desc>Generated speed scale graph from dts/input/processors/speed_scaler.dtsi.</desc>
  <rect width="760" height="460" fill="#ffffff"/>

  <g font-family="Arial, sans-serif" font-size="14" fill="#222">
    <text x="380" y="34" text-anchor="middle" font-size="22" font-weight="700">Trackball Speed Scale</text>
    <text x="380" y="58" text-anchor="middle" fill="#555">min=0.200x max=1.000x exponent=3</text>
  </g>

  <g transform="translate(84 54)">
    <rect x="0" y="0" width="620" height="320" fill="#fafafa" stroke="#ddd"/>
    <g stroke="#e3e3e3" stroke-width="1">
      <line x1="0" y1="256" x2="620" y2="256"/>
      <line x1="0" y1="192" x2="620" y2="192"/>
      <line x1="0" y1="128" x2="620" y2="128"/>
      <line x1="0" y1="64" x2="620" y2="64"/>
      <line x1="0" y1="0" x2="0" y2="320"/>
      <line x1="155.000" y1="0" x2="155.000" y2="320"/>
      <line x1="310.000" y1="0" x2="310.000" y2="320"/>
      <line x1="465.000" y1="0" x2="465.000" y2="320"/>
      <line x1="620" y1="0" x2="620" y2="320"/>
    </g>
    <g stroke="#222" stroke-width="2">
      <line x1="0" y1="320" x2="620" y2="320"/>
      <line x1="0" y1="0" x2="0" y2="320"/>
    </g>
    <g stroke="#d94545" stroke-width="2" stroke-dasharray="6 5">
      <line x1="93.000" y1="0" x2="93.000" y2="320"/>
      <line x1="527.000" y1="0" x2="527.000" y2="320"/>
    </g>
    <polyline points="0.000,256.000 3.100,256.000 6.200,256.000 9.300,256.000 12.400,256.000 15.500,256.000 18.600,256.000 21.700,256.000 24.800,256.000 27.900,256.000 31.000,256.000 34.100,256.000 37.200,256.000 40.300,256.000 43.400,256.000 46.500,256.000 49.600,256.000 52.700,256.000 55.800,256.000 58.900,256.000 62.000,256.000 65.100,256.000 68.200,256.000 71.300,256.000 74.400,256.000 77.500,256.000 80.600,256.000 83.700,256.000 86.800,256.000 89.900,256.000 93.000,256.000 96.100,256.000 99.200,255.999 102.300,255.997 105.400,255.994 108.500,255.988 111.600,255.980 114.700,255.968 117.800,255.952 120.900,255.932 124.000,255.907 127.100,255.876 130.200,255.839 133.300,255.795 136.400,255.744 139.500,255.685 142.600,255.618 145.700,255.542 148.800,255.456 151.900,255.360 155.000,255.254 158.100,255.136 161.200,255.007 164.300,254.865 167.400,254.710 170.500,254.542 173.600,254.360 176.700,254.164 179.800,253.952 182.900,253.725 186.000,253.481 189.100,253.221 192.200,252.943 195.300,252.647 198.400,252.333 201.500,252.000 204.600,251.647 207.700,251.274 210.800,250.881 213.900,250.466 217.000,250.029 220.100,249.570 223.200,249.088 226.300,248.582 229.400,248.053 232.500,247.499 235.600,246.919 238.700,246.314 241.800,245.682 244.900,245.024 248.000,244.338 251.100,243.624 254.200,242.882 257.300,242.111 260.400,241.309 263.500,240.478 266.600,239.616 269.700,238.723 272.800,237.797 275.900,236.839 279.000,235.848 282.100,234.824 285.200,233.765 288.300,232.672 291.400,231.543 294.500,230.379 297.600,229.178 300.700,227.940 303.800,226.665 306.900,225.352 310.000,224.000 313.100,222.609 316.200,221.178 319.300,219.707 322.400,218.195 325.500,216.641 328.600,215.046 331.700,213.408 334.800,211.727 337.900,210.002 341.000,208.233 344.100,206.419 347.200,204.560 350.300,202.655 353.400,200.704 356.500,198.706 359.600,196.659 362.700,194.565 365.800,192.422 368.900,190.230 372.000,187.988 375.100,185.696 378.200,183.353 381.300,180.958 384.400,178.511 387.500,176.012 390.600,173.459 393.700,170.853 396.800,168.192 399.900,165.476 403.000,162.706 406.100,159.879 409.200,156.995 412.300,154.055 415.400,151.056 418.500,148.000 421.600,144.885 424.700,141.710 427.800,138.476 430.900,135.181 434.000,131.825 437.100,128.408 440.200,124.928 443.300,121.386 446.400,117.780 449.500,114.111 452.600,110.377 455.700,106.578 458.800,102.714 461.900,98.784 465.000,94.787 468.100,90.723 471.200,86.591 474.300,82.391 477.400,78.123 480.500,73.784 483.600,69.376 486.700,64.897 489.800,60.347 492.900,55.726 496.000,51.032 499.100,46.266 502.200,41.426 505.300,36.512 508.400,31.524 511.500,26.461 514.600,21.322 517.700,16.107 520.800,10.815 523.900,5.447 527.000,0.000 530.100,0.000 533.200,0.000 536.300,0.000 539.400,0.000 542.500,0.000 545.600,0.000 548.700,0.000 551.800,0.000 554.900,0.000 558.000,0.000 561.100,0.000 564.200,0.000 567.300,0.000 570.400,0.000 573.500,0.000 576.600,0.000 579.700,0.000 582.800,0.000 585.900,0.000 589.000,0.000 592.100,0.000 595.200,0.000 598.300,0.000 601.400,0.000 604.500,0.000 607.600,0.000 610.700,0.000 613.800,0.000 616.900,0.000 620.000,0.000" fill="none" stroke="#1167b1" stroke-width="4" stroke-linejoin="round" stroke-linecap="round"/>
    <g font-family="Arial, sans-serif" font-size="13" fill="#222">
      <text x="-12" y="324" text-anchor="end">0</text>
      <text x="-12" y="260" text-anchor="end">0.2</text>
      <text x="-12" y="196" text-anchor="end">0.4</text>
      <text x="-12" y="132" text-anchor="end">0.6</text>
      <text x="-12" y="68" text-anchor="end">0.8</text>
      <text x="-12" y="4" text-anchor="end">1.0</text>
      <text x="93.000" y="-10" text-anchor="middle" fill="#d94545">low 300</text>
      <text x="527.000" y="-10" text-anchor="middle" fill="#d94545">high 1700</text>
      <text x="310.000" y="344" text-anchor="middle">1000</text>
      <text x="620" y="344" text-anchor="middle">2000</text>
    </g>
    <text x="310.000" y="388" text-anchor="middle" font-family="Arial, sans-serif" font-size="15" fill="#222">Speed estimate</text>
    <text x="-48" y="160" text-anchor="middle" transform="rotate(-90 -48 160)" font-family="Arial, sans-serif" font-size="15" fill="#222">Output scale</text>
  </g>
</svg>
